HIERARCHY
ROOT Hips
{
    OFFSET 0.000000 0.000000 0.000000
    CHANNELS 6 Xposition Yposition Zposition Zrotation Yrotation Xrotation
    JOINT LeftUpLeg
    {
        OFFSET 9.162498 -10.205075 3.799697
        CHANNELS 3 Zrotation Yrotation Xrotation
        JOINT LeftLeg
        {
            OFFSET 14.513953 -39.876781 0.000000
            CHANNELS 3 Zrotation Yrotation Xrotation
            JOINT LeftFoot
            {
                OFFSET 14.224848 -39.082561 0.000000
                CHANNELS 3 Zrotation Yrotation Xrotation
                JOINT LeftToeBase
                {
                    OFFSET 1.314863 -3.612473 11.865319
                    CHANNELS 3 Zrotation Yrotation Xrotation
                    End Site
                    {
                        OFFSET 0.000000 0.000000 0.000000
                    }
                }
            }
        }
    }
    JOINT RightUpLeg
    {
        OFFSET -8.357156 -10.205075 3.799697
        CHANNELS 3 Zrotation Yrotation Xrotation
        JOINT RightLeg
        {
            OFFSET -14.859335 -40.825722 0.000000
            CHANNELS 3 Zrotation Yrotation Xrotation
            JOINT RightFoot
            {
                OFFSET -14.380747 -39.510799 0.000000
                CHANNELS 3 Zrotation Yrotation Xrotation
                JOINT RightToeBase
                {
                    OFFSET -1.301994 -3.577195 11.975215
                    CHANNELS 3 Zrotation Yrotation Xrotation
                    End Site
                    {
                        OFFSET 0.000000 0.000000 0.000000
                    }
                }
            }
        }
    }
    JOINT Spine
    {
        OFFSET -0.118984 11.716251 -0.958476
        CHANNELS 3 Zrotation Yrotation Xrotation
        JOINT Spine1
        {
            OFFSET 0.286171 11.765131 -0.177291
            CHANNELS 3 Zrotation Yrotation Xrotation
            JOINT Neck1
            {
                OFFSET -0.605701 9.054070 1.770648
                CHANNELS 3 Zrotation Yrotation Xrotation
                JOINT Head
                {
                    OFFSET 0.474750 9.351585 -1.739717
                    CHANNELS 3 Zrotation Yrotation Xrotation
                    End Site
                    {
                        OFFSET 0.000000 0.000000 0.000000
                    }
                }
            }
            JOINT LeftShoulder
            {
                OFFSET 0.000000 0.000000 0.000000
                CHANNELS 3 Zrotation Yrotation Xrotation
                JOINT LeftArm
                {
                    OFFSET 19.886068 4.132773 -3.087148
                    CHANNELS 3 Zrotation Yrotation Xrotation
                    JOINT LeftForeArm
                    {
                        OFFSET 30.054285 -0.000000 -0.000000
                        CHANNELS 3 Zrotation Yrotation Xrotation
                        JOINT LeftHand
                        {
                            OFFSET 19.665203 -0.000000 -0.000000
                            CHANNELS 3 Zrotation Yrotation Xrotation
                            End Site
                            {
                                OFFSET 0.000000 0.000000 0.000000
                            }
                        }
                    }
                }
            }
            JOINT RightShoulder
            {
                OFFSET 0.000000 0.000000 0.000000
                CHANNELS 3 Zrotation Yrotation Xrotation
                JOINT RightArm
                {
                    OFFSET -19.290640 5.282707 -0.565512
                    CHANNELS 3 Zrotation Yrotation Xrotation
                    JOINT RightForeArm
                    {
                        OFFSET -30.117897 -0.000000 -0.000000
                        CHANNELS 3 Zrotation Yrotation Xrotation
                        JOINT RightHand
                        {
                            OFFSET -20.553181 -0.000000 -0.000000
                            CHANNELS 3 Zrotation Yrotation Xrotation
                            End Site
                            {
                                OFFSET 0.000000 0.000000 0.000000
                            }
                        }
                    }
                }
            }
        }
    }
}
MOTION
Frames: 7
Frame Time: 0.016667
-13.502534 93.503998 5.545059 1.682000 -2.393201 1.824400 -14.987496 -8.768199 -3.448702 1.824200 8.489903 24.212294 0.611400 6.250401 -18.357016 1.797200 -8.430300 -24.028908 13.926100 5.659200 -9.712997 -3.605599 -11.616206 34.387402 -1.764700 4.615602 -24.065701 -0.170300 -2.658201 7.328504 -0.746391 0.038230 2.836030 8.069903 0.342900 -4.789404 -6.409535 0.905698 2.757732 2.174899 -0.017300 12.074698 0.000000 0.000000 0.000000 1.858100 4.922203 -43.605309 31.819510 -42.402798 -12.619000 0.000000 0.000000 8.001900 0.000000 0.000000 0.000000 26.446304 -7.539610 -46.212601 -29.625216 40.570038 -11.165108 0.000000 0.000000 -5.654602 
-13.564622 93.546906 5.387580 1.603000 -2.285701 1.916401 -14.821007 -8.903105 -3.663400 1.828700 8.499800 24.242701 0.613100 6.265300 -18.387197 1.754800 -8.335500 -23.737904 14.049801 5.694102 -9.842500 -3.582199 -11.582601 34.271088 -1.750200 4.381299 -23.996599 -0.161000 -2.585101 7.125604 -1.831512 0.183842 2.859182 7.594504 0.357800 -4.798602 -6.123371 1.124808 2.639920 2.326100 0.035100 12.018400 0.000000 0.000000 0.000000 0.238301 5.235502 -43.378185 31.780905 -42.371819 -12.592905 0.000000 0.000000 7.283903 0.000000 0.000000 0.000000 25.226204 -7.229498 -45.597813 -30.191715 41.057217 -11.535404 0.000000 0.000000 -5.066504 
-13.608085 93.550285 5.262839 1.213601 -2.083601 1.955602 -14.325492 -9.111704 -3.807100 1.850900 8.548307 24.392113 0.634100 6.086100 -18.476999 1.708100 -8.229500 -23.413401 14.518201 5.624202 -9.820600 -3.540602 -11.522502 34.063221 -1.740801 4.222102 -23.953699 -0.165200 -2.618502 7.218400 -2.487875 0.239101 2.831582 7.129202 0.348300 -4.777202 -5.895733 1.215921 2.543969 2.306500 0.067900 11.960200 0.000000 0.000000 0.000000 -1.545800 5.353301 -43.598400 31.775314 -42.367317 -12.589103 0.000000 0.000000 7.323400 0.000000 0.000000 0.000000 23.946203 -6.687697 -45.498806 -30.771307 41.545410 -11.917809 0.000000 0.000000 -3.857004 
-13.671302 93.579071 5.115520 0.734300 -2.003202 2.009700 -13.723205 -9.280699 -4.017001 1.881101 8.613902 24.594810 0.646900 6.063000 -18.597000 1.693601 -8.196400 -23.312201 15.142599 5.698503 -9.844004 -3.495302 -11.456700 33.836021 -1.715900 3.619100 -23.875900 -0.112100 -2.158800 5.944800 -3.056376 0.476416 2.845037 6.681901 0.388100 -4.685002 -5.600281 1.299844 2.390042 2.476501 0.079700 11.914811 0.000000 0.000000 0.000000 -3.191300 5.522701 -43.530823 31.627213 -42.247913 -12.489403 0.000000 0.000000 6.748803 0.000000 0.000000 0.000000 22.689611 -6.354202 -45.326431 -31.405910 42.068428 -12.340907 0.000000 0.000000 -2.934301 
-13.695572 93.584152 4.990778 0.441000 -1.753901 2.053902 -13.361205 -9.559901 -4.159400 1.907900 8.671408 24.772907 0.648900 6.086601 -18.636892 1.662001 -8.123400 -23.089508 15.508708 5.535200 -9.885700 -3.457203 -11.400805 33.643711 -1.715300 3.248400 -23.940893 -0.077200 -1.791900 4.930899 -3.786826 0.478325 2.832928 6.282904 0.356200 -4.483505 -5.368671 1.412724 2.241426 2.588901 0.106300 11.818104 0.000000 0.000000 0.000000 -5.058203 5.814706 -43.598003 31.680910 -42.291336 -12.525503 0.000000 0.000000 6.207600 0.000000 0.000000 0.000000 21.358707 -5.862002 -45.104019 -31.978399 42.529999 -12.726201 0.000000 0.000000 -2.241100 
-13.743550 93.603348 4.826527 0.051800 -1.311901 2.062701 -12.836794 -9.834703 -4.421999 1.946001 8.752699 25.024712 0.651300 5.885302 -18.511408 1.759799 -8.346598 -23.771997 15.988700 5.295398 -9.883900 -3.406000 -11.325000 33.383999 -1.704000 2.937402 -23.921005 -0.080600 -1.831001 5.038802 -4.440714 0.581985 3.010744 5.773603 0.361100 -4.519602 -4.959610 1.408492 2.047184 2.651400 0.103200 11.852992 0.000000 0.000000 0.000000 -6.607299 5.757798 -43.491215 31.553308 -42.188221 -12.439808 0.000000 0.000000 5.268802 0.000000 0.000000 0.000000 20.285805 -5.742704 -44.867302 -32.767906 43.150902 -13.263103 0.000000 0.000000 -1.788400 
-13.785319 93.612938 4.695012 -0.385500 -0.925800 2.115500 -12.254799 -10.007396 -4.789100 1.993800 8.853106 25.337013 0.657800 5.663503 -18.418907 1.800701 -8.438004 -24.052614 16.515108 5.204103 -9.855608 -3.355000 -11.248705 33.123306 -1.711000 2.753701 -24.010914 -0.076900 -1.789300 4.923604 -5.046206 0.611511 3.034005 5.354499 0.341000 -4.370000 -4.539062 1.522027 1.949283 2.788799 0.125600 11.843100 0.000000 0.000000 0.000000 -8.372602 5.815998 -43.625809 31.546495 -42.182590 -12.435196 0.000000 0.000000 4.032900 0.000000 0.000000 0.000000 19.114407 -5.587600 -44.302608 -33.555904 43.752979 -13.804995 0.000000 0.000000 -2.057901 
